<svg version="1.1" id="Layer_1" xmlns="http://www.w3.org/2000/svg" xmlns:xlink="http://www.w3.org/1999/xlink" x="0px" y="0px"
	 width="100%" viewBox="0 0 512 512" enable-background="new 0 0 512 512" xml:space="preserve">
<path fill="#000000" opacity="1.000000" stroke="none" 
	d="
M1.000000,183.000000 
	C1.000000,122.000000 1.000000,61.500000 1.000000,1.000000 
	C171.666672,1.000000 342.333344,1.000000 513.000000,1.000000 
	C513.000000,171.666672 513.000000,342.333344 513.000000,513.000000 
	C342.333344,513.000000 171.666672,513.000000 1.000000,513.000000 
	C1.000000,403.166656 1.000000,293.333344 1.000000,183.000000 
M43.031158,187.930191 
	C43.076279,196.620972 43.121395,205.311752 43.031689,214.930954 
	C43.076370,228.955734 43.121052,242.980499 43.032879,257.933594 
	C43.077507,275.290680 43.122135,292.647736 43.032639,310.932953 
	C43.077160,322.289246 43.121685,333.645508 43.029003,345.917236 
	C43.408218,351.945282 43.787437,357.973297 44.029934,364.843781 
	C44.742134,369.562958 45.454338,374.282166 46.052391,379.786682 
	C47.423710,384.191376 48.795029,388.596100 50.047306,393.761505 
	C51.358624,397.191162 52.669941,400.620819 54.015728,404.786377 
	C56.296871,409.208466 58.578011,413.630554 61.173264,418.678162 
	C63.075867,421.465271 64.978470,424.252350 67.170303,427.663086 
	C72.783691,433.389343 78.397079,439.115631 84.635559,445.142548 
	C93.405884,450.423309 101.708244,456.814178 111.045425,460.750214 
	C129.621231,468.580750 149.458374,471.005890 169.572342,471.004486 
	C217.700775,471.001160 265.829407,471.081726 313.957520,470.957581 
	C329.206726,470.918213 344.455536,470.379089 359.702728,469.995880 
	C379.479675,469.498840 398.050201,464.186279 415.304108,454.779266 
	C421.407990,451.451355 426.539154,446.339386 432.807922,441.993805 
	C437.579498,437.008179 442.351105,432.022552 447.729858,426.711395 
	C449.169556,424.176300 450.609222,421.641174 452.671814,418.771545 
	C455.058411,413.847870 457.445007,408.924194 460.162842,403.336212 
	C461.480316,399.571320 462.797760,395.806396 464.774689,391.624054 
	C466.128204,385.083435 467.481720,378.542786 468.976074,371.139282 
	C469.597931,364.093781 470.219788,357.048309 470.974762,349.073364 
	C470.926819,340.716156 470.878845,332.358917 470.971558,323.073639 
	C470.924774,315.716003 470.877991,308.358368 470.971252,300.072601 
	C470.925598,286.383484 470.879974,272.694366 470.975067,258.076599 
	C470.927948,239.051956 470.880859,220.027298 470.973083,200.074265 
	C470.927155,190.382767 470.881226,180.691284 470.971130,170.108704 
	C470.591736,163.073212 470.212341,156.037720 469.651917,148.203278 
	C468.712616,143.469162 467.773315,138.735046 466.968964,133.181580 
	C465.682648,128.438782 464.396362,123.695992 463.018158,118.181381 
	C461.717255,114.773399 460.416321,111.365417 459.001526,107.232773 
	C457.351776,104.120399 455.702026,101.008026 453.965088,97.194138 
	C451.014221,93.115601 448.063354,89.037056 445.019348,84.258125 
	C440.360352,79.471962 435.701385,74.685799 430.703278,69.308235 
	C427.784943,67.210960 424.955353,64.975227 421.934082,63.038540 
	C399.873413,48.897232 375.257599,43.186974 349.527924,43.147209 
	C283.834351,43.045689 218.139069,43.593029 152.446350,44.116562 
	C145.806671,44.169476 139.109650,45.480850 132.560349,46.806561 
	C114.208656,50.521324 97.482391,57.895954 82.339333,70.181625 
	C81.059769,71.452187 79.718163,72.666786 78.512321,74.003838 
	C74.941727,77.962929 71.424728,81.970345 67.270012,86.250580 
	C64.472717,90.821716 61.675423,95.392845 58.277534,100.312355 
	C56.907120,103.208618 55.536705,106.104881 53.834614,109.666847 
	C52.611980,113.111671 51.389351,116.556503 49.804665,120.698212 
	C48.259048,127.466240 46.713432,134.234268 45.032879,141.856003 
	C44.411213,149.237656 43.789547,156.619293 43.032658,164.929443 
	C43.077053,172.286850 43.121449,179.644241 43.031158,187.930191 
z"/>
<path fill="#66B173" opacity="1.000000" stroke="none" 
	d="
M82.946091,69.892334 
	C97.482391,57.895954 114.208656,50.521324 132.560349,46.806561 
	C139.109650,45.480850 145.806671,44.169476 152.446350,44.116562 
	C218.139069,43.593029 283.834351,43.045689 349.527924,43.147209 
	C375.257599,43.186974 399.873413,48.897232 421.934082,63.038540 
	C424.955353,64.975227 427.784943,67.210960 430.622314,69.905823 
	C428.344299,71.002029 426.149292,71.923126 423.949799,71.933929 
	C401.979065,72.041817 380.007538,71.999962 358.036255,71.999969 
	C269.485291,72.000008 180.934311,72.021584 92.383492,71.911072 
	C89.236855,71.907143 86.091850,70.594849 82.946091,69.892334 
z"/>
<path fill="#4DA3C9" opacity="1.000000" stroke="none" 
	d="
M432.114441,442.041931 
	C426.539154,446.339386 421.407990,451.451355 415.304108,454.779266 
	C398.050201,464.186279 379.479675,469.498840 359.702728,469.995880 
	C344.455536,470.379089 329.206726,470.918213 313.957520,470.957581 
	C265.829407,471.081726 217.700775,471.001160 169.572342,471.004486 
	C149.458374,471.005890 129.621231,468.580750 111.045425,460.750214 
	C101.708244,456.814178 93.405884,450.423309 84.454086,444.646912 
	C86.329544,443.434845 88.386002,442.093140 90.443489,442.091553 
	C204.333740,442.004028 318.224091,442.028625 432.114441,442.041931 
z"/>
<path fill="#62AF81" opacity="1.000000" stroke="none" 
	d="
M463.110046,118.953209 
	C464.396362,123.695992 465.682648,128.438782 466.505615,133.494446 
	C463.571411,133.538376 461.100677,133.036316 458.629608,133.034592 
	C396.831848,132.991180 335.034088,132.988586 273.236328,133.044617 
	C270.785889,133.046829 268.336060,133.695770 265.511597,134.010406 
	C263.763458,133.493835 262.358978,133.082703 261.020538,132.515717 
	C241.787323,124.368217 222.142365,123.822098 202.523926,130.402588 
	C194.738983,133.013840 187.563629,137.442459 179.696136,140.949310 
	C176.647293,140.570358 174.013412,140.041443 171.378815,140.037888 
	C132.102249,139.984802 92.825569,139.980820 53.549038,140.044250 
	C50.754787,140.048767 47.961533,140.668579 45.167816,141.002289 
	C46.713432,134.234268 48.259048,127.466240 50.443680,120.349503 
	C185.309860,120.000519 319.537018,120.007309 453.764160,119.956253 
	C456.879608,119.955070 459.994751,119.302139 463.110046,118.953209 
z"/>
<path fill="#51A5BA" opacity="1.000000" stroke="none" 
	d="
M468.835236,372.002167 
	C467.481720,378.542786 466.128204,385.083435 463.968994,391.824829 
	C328.126282,392.017334 193.089294,392.003357 58.052299,392.042419 
	C55.423561,392.043182 52.795002,392.667419 50.166355,393.000793 
	C48.795029,388.596100 47.423710,384.191376 46.524612,379.376831 
	C51.628628,378.644653 56.260117,378.047058 60.892265,378.041840 
	C117.959938,377.977631 175.027725,378.024292 232.095352,377.936371 
	C235.343369,377.931366 238.589996,377.007599 242.119934,376.696106 
	C252.776978,382.987762 264.105682,386.768280 275.931580,387.818878 
	C295.694153,389.574524 314.334106,385.342224 331.160339,374.344391 
	C333.044769,373.112701 335.026367,372.029633 337.156921,371.217316 
	C339.527496,372.037567 341.703156,372.932404 343.880768,372.937164 
	C382.743866,373.021851 421.607239,373.019073 460.470428,372.955688 
	C463.259186,372.951141 466.046997,372.334290 468.835236,372.002167 
z"/>
<path fill="#4FA3C4" opacity="1.000000" stroke="none" 
	d="
M432.461182,442.017883 
	C318.224091,442.028625 204.333740,442.004028 90.443489,442.091553 
	C88.386002,442.093140 86.329544,443.434845 84.141541,444.496582 
	C78.397079,439.115631 72.783691,433.389343 67.501892,427.343750 
	C194.263214,427.028564 320.692963,427.032745 447.122711,427.036926 
	C442.351105,432.022552 437.579498,437.008179 432.461182,442.017883 
z"/>
<path fill="#64B07B" opacity="1.000000" stroke="none" 
	d="
M445.112488,84.958511 
	C448.063354,89.037056 451.014221,93.115601 453.718140,97.804581 
	C451.088287,98.942909 448.705597,99.931511 446.322418,99.932671 
	C317.174347,99.995598 188.026230,99.975540 58.878128,99.963982 
	C61.675423,95.392845 64.472717,90.821716 68.054276,86.112671 
	C191.632965,85.982872 314.427368,85.997467 437.221802,85.955658 
	C439.852112,85.954765 442.482269,85.305374 445.112488,84.958511 
z"/>
<path fill="#50A4C1" opacity="1.000000" stroke="none" 
	d="
M459.831604,404.000519 
	C457.445007,408.924194 455.058411,413.847870 452.049774,418.707764 
	C448.026245,418.096008 444.625061,417.071228 441.223206,417.068970 
	C318.904602,416.986786 196.585953,416.988892 74.267326,417.044342 
	C69.797775,417.046356 65.328529,417.701752 60.859150,418.052612 
	C58.578011,413.630554 56.296871,409.208466 54.467136,404.405823 
	C189.889557,404.016998 324.860565,404.008759 459.831604,404.000519 
z"/>
<path fill="#65B178" opacity="1.000000" stroke="none" 
	d="
M445.065918,84.608322 
	C442.482269,85.305374 439.852112,85.954765 437.221802,85.955658 
	C314.427368,85.997467 191.632965,85.982872 68.362656,85.966812 
	C71.424728,81.970345 74.941727,77.962929 78.512321,74.003838 
	C79.718163,72.666786 81.059769,71.452187 82.642715,70.036980 
	C86.091850,70.594849 89.236855,71.907143 92.383492,71.911072 
	C180.934311,72.021584 269.485291,72.000008 358.036255,71.999969 
	C380.007538,71.999962 401.979065,72.041817 423.949799,71.933929 
	C426.149292,71.923126 428.344299,71.002029 430.791870,70.201523 
	C435.701385,74.685799 440.360352,79.471962 445.065918,84.608322 
z"/>
<path fill="#50A5BD" opacity="1.000000" stroke="none" 
	d="
M459.997192,403.668365 
	C324.860565,404.008759 189.889557,404.016998 54.449902,404.037842 
	C52.669941,400.620819 51.358624,397.191162 50.106834,393.381165 
	C52.795002,392.667419 55.423561,392.043182 58.052299,392.042419 
	C193.089294,392.003357 328.126282,392.017334 463.639282,392.033569 
	C462.797760,395.806396 461.480316,399.571320 459.997192,403.668365 
z"/>
<path fill="#63AF7E" opacity="1.000000" stroke="none" 
	d="
M463.064087,118.567299 
	C459.994751,119.302139 456.879608,119.955070 453.764160,119.956253 
	C319.537018,120.007309 185.309860,120.000519 50.624706,120.001060 
	C51.389351,116.556503 52.611980,113.111671 54.458458,109.333755 
	C185.293900,109.000443 315.505493,109.010567 445.717072,108.956100 
	C450.183319,108.954239 454.649323,108.304947 459.115417,107.957428 
	C460.416321,111.365417 461.717255,114.773399 463.064087,118.567299 
z"/>
<path fill="#4FA4C2" opacity="1.000000" stroke="none" 
	d="
M61.016205,418.365387 
	C65.328529,417.701752 69.797775,417.046356 74.267326,417.044342 
	C196.585953,416.988892 318.904602,416.986786 441.223206,417.068970 
	C444.625061,417.071228 448.026245,418.096008 451.738342,418.875031 
	C450.609222,421.641174 449.169556,424.176300 447.426270,426.874146 
	C320.692963,427.032745 194.263214,427.028564 67.357269,427.031921 
	C64.978470,424.252350 63.075867,421.465271 61.016205,418.365387 
z"/>
<path fill="#63B07C" opacity="1.000000" stroke="none" 
	d="
M459.058472,107.595100 
	C454.649323,108.304947 450.183319,108.954239 445.717072,108.956100 
	C315.505493,109.010567 185.293900,109.000443 54.624294,109.000900 
	C55.536705,106.104881 56.907120,103.208618 58.577831,100.138168 
	C188.026230,99.975540 317.174347,99.995598 446.322418,99.932671 
	C448.705597,99.931511 451.088287,98.942909 453.761719,98.155342 
	C455.702026,101.008026 457.351776,104.120399 459.058472,107.595100 
z"/>
<path fill="#60AE89" opacity="1.000000" stroke="none" 
	d="
M469.832947,149.002228 
	C470.212341,156.037720 470.591736,163.073212 470.495361,170.509521 
	C467.724243,170.608353 465.429626,170.050049 463.133545,170.043930 
	C439.077911,169.979843 415.021667,169.938171 390.966919,170.096893 
	C388.293488,170.114548 385.628510,171.413010 382.714355,172.056915 
	C382.307434,171.949371 382.145691,171.902374 381.808807,171.705750 
	C381.391052,171.366547 381.135376,171.196747 380.555664,170.897125 
	C369.001160,163.127975 356.545654,158.618576 343.260345,156.116074 
	C336.432159,154.829865 329.115662,157.443359 325.406281,163.182495 
	C321.676208,168.953598 322.364838,175.065277 326.266815,180.145691 
	C328.601471,183.185410 332.698578,184.871490 335.789825,187.477203 
	C333.891327,188.191589 332.214569,188.897964 330.520203,188.943008 
	C324.645355,189.099167 318.764435,189.025528 312.571533,188.843811 
	C308.206604,174.128372 299.610077,162.309158 290.316040,150.899551 
	C292.970490,150.455276 295.268066,150.030533 297.566010,150.028915 
	C350.854004,149.991516 404.142090,150.022064 457.430023,149.956879 
	C461.564697,149.951828 465.698669,149.334808 469.832947,149.002228 
z"/>
<path fill="#61AE84" opacity="1.000000" stroke="none" 
	d="
M469.742432,148.602753 
	C465.698669,149.334808 461.564697,149.951828 457.430023,149.956879 
	C404.142090,150.022064 350.854004,149.991516 297.566010,150.028915 
	C295.268066,150.030533 292.970490,150.455276 290.007507,150.753418 
	C281.523529,145.230423 273.704712,139.636902 265.885925,134.043365 
	C268.336060,133.695770 270.785889,133.046829 273.236328,133.044617 
	C335.034088,132.988586 396.831848,132.991180 458.629608,133.034592 
	C461.100677,133.036316 463.571411,133.538376 466.438171,133.904114 
	C467.773315,138.735046 468.712616,143.469162 469.742432,148.602753 
z"/>
<path fill="#53A6B3" opacity="1.000000" stroke="none" 
	d="
M44.166656,364.001343 
	C43.787437,357.973297 43.408218,351.945282 43.555679,345.459167 
	C70.536385,345.000641 96.990822,345.069122 123.443901,344.909973 
	C126.648209,344.890686 129.845123,343.643555 133.370148,343.090698 
	C146.556641,352.123230 160.489487,357.976929 176.411972,357.977295 
	C182.540359,357.977448 188.238785,353.041626 190.372192,346.169739 
	C191.974030,341.010132 189.643356,333.644043 184.456848,331.028961 
	C179.653946,328.607330 174.182251,327.512085 169.186508,325.539673 
	C170.252060,324.935181 171.142120,324.339264 172.019409,324.357513 
	C178.938492,324.501251 185.864105,325.049103 192.767746,324.833527 
	C195.222076,324.756897 197.621216,322.913177 200.372086,322.070038 
	C204.716110,338.010559 213.222092,351.174103 223.724487,363.115112 
	C220.694885,363.512634 218.060715,363.967041 215.426224,363.968933 
	C158.339706,364.010132 101.253181,364.000885 44.166656,364.001343 
z"/>
<path fill="#60AE89" opacity="1.000000" stroke="none" 
	d="
M45.100349,141.429138 
	C47.961533,140.668579 50.754787,140.048767 53.549038,140.044250 
	C92.825569,139.980820 132.102249,139.984802 171.378815,140.037888 
	C174.013412,140.041443 176.647293,140.570358 179.547974,141.258911 
	C177.574295,143.575714 175.231842,145.382248 173.113449,147.421539 
	C167.065430,153.243729 161.108505,159.160538 154.720825,164.885956 
	C151.860352,164.488083 149.395035,164.035446 146.929138,164.032150 
	C112.342102,163.985870 77.754982,164.000854 43.167881,164.000946 
	C43.789547,156.619293 44.411213,149.237656 45.100349,141.429138 
z"/>
<path fill="#53A6B3" opacity="1.000000" stroke="none" 
	d="
M468.905640,371.570740 
	C466.046997,372.334290 463.259186,372.951141 460.470428,372.955688 
	C421.607239,373.019073 382.743866,373.021851 343.880768,372.937164 
	C341.703156,372.932404 339.527496,372.037567 337.293182,370.910767 
	C341.219940,366.612549 345.302124,363.060303 349.159546,359.278717 
	C352.531952,355.972504 355.651398,352.408264 359.358551,348.966003 
	C396.836884,349.316895 433.839233,349.659851 470.841614,350.002808 
	C470.219788,357.048309 469.597931,364.093781 468.905640,371.570740 
z"/>
<path fill="#58A9A4" opacity="1.000000" stroke="none" 
	d="
M43.166763,310.004822 
	C43.122135,292.647736 43.077507,275.290680 43.495384,257.565002 
	C60.916416,257.132202 77.874939,257.068054 94.899658,257.431549 
	C95.288582,266.265961 94.692238,274.839447 96.178986,283.035034 
	C97.839699,292.189606 101.390968,301.001190 103.643341,309.969482 
	C83.167091,309.986206 63.166927,309.995514 43.166763,310.004822 
z"/>
<path fill="#5BAB98" opacity="1.000000" stroke="none" 
	d="
M470.833771,201.002655 
	C470.880859,220.027298 470.927948,239.051956 470.587402,258.390564 
	C467.640228,257.804077 465.093536,256.169586 462.519135,256.124725 
	C448.071991,255.873032 433.618164,256.004578 419.098999,255.582092 
	C419.353363,252.748917 420.000214,250.331406 419.944275,247.930267 
	C419.595795,232.971390 416.396790,218.632965 410.624390,204.999313 
	C427.524506,204.999084 443.967682,204.887726 460.407379,205.075867 
	C464.613739,205.124008 468.260437,204.687408 470.833771,201.002655 
z"/>
<path fill="#52A6B7" opacity="1.000000" stroke="none" 
	d="
M44.098293,364.422546 
	C101.253181,364.000885 158.339706,364.010132 215.426224,363.968933 
	C218.060715,363.967041 220.694885,363.512634 224.027832,363.250916 
	C230.430038,367.659088 236.133652,372.085297 241.837265,376.511475 
	C238.589996,377.007599 235.343369,377.931366 232.095352,377.936371 
	C175.027725,378.024292 117.959938,377.977631 60.892265,378.041840 
	C56.260117,378.047058 51.628628,378.644653 46.581684,378.984161 
	C45.454338,374.282166 44.742134,369.562958 44.098293,364.422546 
z"/>
<path fill="#54A7B0" opacity="1.000000" stroke="none" 
	d="
M43.099701,310.468872 
	C63.166927,309.995514 83.167091,309.986206 103.945007,310.138031 
	C111.711014,323.314453 121.063736,334.279694 133.045456,342.965485 
	C129.845123,343.643555 126.648209,344.890686 123.443901,344.909973 
	C96.990822,345.069122 70.536385,345.000641 43.624279,345.001465 
	C43.121685,333.645508 43.077160,322.289246 43.099701,310.468872 
z"/>
<path fill="#5FAD8C" opacity="1.000000" stroke="none" 
	d="
M470.903442,200.538452 
	C468.260437,204.687408 464.613739,205.124008 460.407379,205.075867 
	C443.967682,204.887726 427.524506,204.999084 410.465607,204.681503 
	C406.389435,199.233047 403.345367,193.750107 399.366943,189.059708 
	C394.292725,183.077347 388.463440,177.735428 382.959595,172.117462 
	C385.628510,171.413010 388.293488,170.114548 390.966919,170.096893 
	C415.021667,169.938171 439.077911,169.979843 463.133545,170.043930 
	C465.429626,170.050049 467.724243,170.608353 470.427429,170.955048 
	C470.881226,180.691284 470.927155,190.382767 470.903442,200.538452 
z"/>
<path fill="#5BAB98" opacity="1.000000" stroke="none" 
	d="
M94.833466,257.003876 
	C77.874939,257.068054 60.916416,257.132202 43.561813,257.100830 
	C43.121052,242.980499 43.076370,228.955734 43.557121,214.466248 
	C62.320541,214.000763 80.558525,213.997757 98.796509,214.000992 
	C102.570656,214.001663 106.344803,214.025467 110.059883,214.392975 
	C101.170036,227.477875 96.786957,241.804840 94.833466,257.003876 
z"/>
<path fill="#54A7B0" opacity="1.000000" stroke="none" 
	d="
M470.908203,349.538086 
	C433.839233,349.659851 396.836884,349.316895 359.499390,348.659149 
	C367.070618,340.215607 374.976990,332.086823 383.298401,324.052063 
	C386.179474,324.430389 388.644897,324.955292 391.111603,324.961700 
	C415.059021,325.023865 439.006775,325.029938 462.954132,324.955475 
	C465.580688,324.947296 468.205353,324.334229 470.830902,324.001709 
	C470.878845,332.358917 470.926819,340.716156 470.908203,349.538086 
z"/>
<path fill="#58A9A4" opacity="1.000000" stroke="none" 
	d="
M419.166626,256.005310 
	C433.618164,256.004578 448.071991,255.873032 462.519135,256.124725 
	C465.093536,256.169586 467.640228,257.804077 470.517029,258.854919 
	C470.879974,272.694366 470.925598,286.383484 470.584106,300.386963 
	C467.469147,299.801178 464.750305,298.154053 462.012146,298.121277 
	C443.066559,297.894318 424.116943,298.003540 405.208496,297.658020 
	C413.344849,284.707458 417.698395,270.842499 419.166626,256.005310 
z"/>
<path fill="#5FAD8C" opacity="1.000000" stroke="none" 
	d="
M43.100269,164.465195 
	C77.754982,164.000854 112.342102,163.985870 146.929138,164.032150 
	C149.395035,164.035446 151.860352,164.488083 154.576950,165.191162 
	C147.231537,173.474045 139.635101,181.297516 131.790131,188.817062 
	C129.183655,188.008911 126.827339,187.075073 124.467522,187.066132 
	C97.367271,186.963455 70.266487,187.001251 43.165840,187.001648 
	C43.121449,179.644241 43.077053,172.286850 43.100269,164.465195 
z"/>
<path fill="#5DAC91" opacity="1.000000" stroke="none" 
	d="
M43.098499,187.465912 
	C70.266487,187.001251 97.367271,186.963455 124.467522,187.066132 
	C126.827339,187.075073 129.183655,188.008911 131.652435,189.118240 
	C124.548492,197.828415 117.333717,205.933502 110.118942,214.038605 
	C106.344803,214.025467 102.570656,214.001663 98.796509,214.000992 
	C80.558525,213.997757 62.320541,214.000763 43.624535,214.002045 
	C43.121395,205.311752 43.076279,196.620972 43.098499,187.465912 
z"/>
<path fill="#56A8AA" opacity="1.000000" stroke="none" 
	d="
M405.168640,298.004822 
	C424.116943,298.003540 443.066559,297.894318 462.012146,298.121277 
	C464.750305,298.154053 467.469147,299.801178 470.514069,300.851013 
	C470.877991,308.358368 470.924774,315.716003 470.901245,323.537689 
	C468.205353,324.334229 465.580688,324.947296 462.954132,324.955475 
	C439.006775,325.029938 415.059021,325.023865 391.111603,324.961700 
	C388.644897,324.955292 386.179474,324.430389 383.439209,323.745178 
	C390.499481,314.897797 397.834076,306.451324 405.168640,298.004822 
z"/>
<path fill="#000000" opacity="1.000000" stroke="none" 
	d="
M110.059875,214.392975 
	C117.333717,205.933502 124.548492,197.828415 131.900970,189.422165 
	C139.635101,181.297516 147.231537,173.474045 154.971863,165.345352 
	C161.108505,159.160538 167.065430,153.243729 173.113449,147.421539 
	C175.231842,145.382248 177.574295,143.575714 179.962585,141.353271 
	C187.563629,137.442459 194.738983,133.013840 202.523926,130.402588 
	C222.142365,123.822098 241.787323,124.368217 261.020538,132.515717 
	C262.358978,133.082703 263.763458,133.493835 265.511597,134.010406 
	C273.704712,139.636902 281.523529,145.230423 289.650848,150.970062 
	C299.610077,162.309158 308.206604,174.128372 312.622162,189.246841 
	C314.324646,200.050110 316.125610,210.223495 316.819061,220.471832 
	C317.210175,226.251587 315.777191,232.154755 315.086243,238.389847 
	C314.437531,240.631393 314.069122,242.577713 313.265991,244.324127 
	C308.864105,253.896072 304.355652,263.419006 299.576416,273.100433 
	C291.811707,281.478180 284.354340,289.714264 276.592224,298.086914 
	C274.266724,300.569061 272.198608,302.875702 270.235352,305.268372 
	C266.322693,310.036865 258.781250,312.631653 253.787888,311.403717 
	C245.163803,309.282959 238.154007,299.029205 244.338409,287.933411 
	C245.981659,286.123596 247.262390,284.425873 248.677475,282.848694 
	C257.789307,272.693176 267.440582,262.966797 275.878143,252.280975 
	C281.272034,245.449875 284.581360,237.104019 285.040985,227.627579 
	C287.457672,213.000824 285.357452,199.512756 277.961182,186.622131 
	C274.998566,182.497070 272.619995,178.250778 269.302704,174.947006 
	C253.070053,158.780365 233.740616,154.609436 211.814163,160.559448 
	C197.610901,164.413666 188.375000,174.717606 178.643280,185.037292 
	C170.874527,193.103394 163.414291,201.023071 155.646423,209.092056 
	C150.966187,213.920868 146.278458,218.350433 142.311798,223.351883 
	C138.526520,228.124603 135.492493,233.493164 131.855438,238.796127 
	C125.763557,249.988449 124.345566,261.790741 125.250778,274.392029 
	C125.892799,277.627350 126.222176,280.542999 127.048393,283.310272 
	C133.493210,304.896118 146.402557,320.162109 169.005081,325.832764 
	C174.182251,327.512085 179.653946,328.607330 184.456848,331.028961 
	C189.643356,333.644043 191.974030,341.010132 190.372192,346.169739 
	C188.238785,353.041626 182.540359,357.977448 176.411972,357.977295 
	C160.489487,357.976929 146.556641,352.123230 133.370148,343.090698 
	C121.063736,334.279694 111.711014,323.314453 104.421097,310.130615 
	C101.390968,301.001190 97.839699,292.189606 96.178986,283.035034 
	C94.692238,274.839447 95.288582,266.265961 94.899658,257.431549 
	C96.786957,241.804840 101.170036,227.477875 110.059875,214.392975 
z"/>
<path fill="#000000" opacity="1.000000" stroke="none" 
	d="
M405.208496,297.658020 
	C397.834076,306.451324 390.499481,314.897797 383.024139,323.651184 
	C374.976990,332.086823 367.070618,340.215607 359.023438,348.651184 
	C355.651398,352.408264 352.531952,355.972504 349.159546,359.278717 
	C345.302124,363.060303 341.219940,366.612549 337.099182,370.571045 
	C335.026367,372.029633 333.044769,373.112701 331.160339,374.344391 
	C314.334106,385.342224 295.694153,389.574524 275.931580,387.818878 
	C264.105682,386.768280 252.776978,382.987762 242.119934,376.696106 
	C236.133652,372.085297 230.430038,367.659088 224.423096,363.097046 
	C213.222092,351.174103 204.716110,338.010559 200.355133,321.660217 
	C199.007660,311.853241 197.484940,302.667297 197.177246,293.440826 
	C196.962494,287.001709 198.411942,280.507080 199.441254,273.831604 
	C201.347794,268.739685 202.452866,263.627441 204.629166,259.021301 
	C207.710510,252.499634 211.582153,246.351349 215.421112,239.872498 
	C223.833984,230.837387 231.941788,221.973236 240.355133,212.967194 
	C242.541718,210.949509 244.671783,209.261978 246.257935,207.163345 
	C251.384262,200.380646 262.535980,201.945694 267.544586,206.958588 
	C273.713837,213.133148 272.553619,219.889969 269.587952,227.092682 
	C260.799591,236.042999 252.072357,244.639587 243.897263,253.732574 
	C236.626831,261.819305 231.667648,271.305420 229.356628,282.494843 
	C229.041122,284.016876 229.073456,285.190765 228.883041,286.327362 
	C226.609543,299.899139 228.085724,312.880310 234.940384,325.401062 
	C243.917252,342.906860 258.147400,353.155731 277.037598,355.847443 
	C303.114075,359.563232 321.606445,346.263336 336.944427,327.021240 
	C337.123474,326.796692 337.057922,326.377197 337.454651,326.020844 
	C346.146210,317.328918 354.489685,308.664856 362.983459,299.694336 
	C366.655334,295.859894 370.639679,292.675659 373.580780,288.716461 
	C377.212219,283.828003 379.976288,278.295227 383.430603,272.855194 
	C385.493317,266.134735 387.863586,259.685883 388.780823,253.036621 
	C389.453278,248.161865 388.219147,243.024109 387.903870,237.590103 
	C385.779572,220.653046 378.028687,207.259445 364.662018,197.416016 
	C357.990692,192.503113 350.737518,188.313904 341.908081,187.609161 
	C341.179749,187.276825 340.587830,187.221191 339.599854,187.099686 
	C338.137024,187.077881 337.070251,187.121948 336.003479,187.166016 
	C332.698578,184.871490 328.601471,183.185410 326.266815,180.145691 
	C322.364838,175.065277 321.676208,168.953598 325.406281,163.182495 
	C329.115662,157.443359 336.432159,154.829865 343.260345,156.116074 
	C356.545654,158.618576 369.001160,163.127975 380.651489,171.144562 
	C381.366821,171.646179 381.675415,171.750778 381.983978,171.855377 
	C382.145691,171.902374 382.307434,171.949371 382.714355,172.056915 
	C388.463440,177.735428 394.292725,183.077347 399.366943,189.059708 
	C403.345367,193.750107 406.389435,199.233047 410.007385,204.681702 
	C416.396790,218.632965 419.595795,232.971390 419.944275,247.930267 
	C420.000214,250.331406 419.353363,252.748917 419.098999,255.582092 
	C417.698395,270.842499 413.344849,284.707458 405.208496,297.658020 
z"/>
<path fill="#5CAB95" opacity="1.000000" stroke="none" 
	d="
M335.789825,187.477203 
	C337.070251,187.121948 338.137024,187.077881 339.691467,187.313599 
	C340.800934,187.690887 341.422729,187.788391 342.044495,187.885895 
	C350.737518,188.313904 357.990692,192.503113 364.662018,197.416016 
	C378.028687,207.259445 385.779572,220.653046 387.445770,237.589355 
	C363.000977,238.002167 339.083435,238.002258 315.165863,238.002335 
	C315.777191,232.154755 317.210175,226.251587 316.819061,220.471832 
	C316.125610,210.223495 314.324646,200.050110 312.936462,189.442322 
	C318.764435,189.025528 324.645355,189.099167 330.520203,188.943008 
	C332.214569,188.897964 333.891327,188.191589 335.789825,187.477203 
z"/>
<path fill="#5FAD8C" opacity="1.000000" stroke="none" 
	d="
M381.808807,171.705750 
	C381.675415,171.750778 381.366821,171.646179 380.962433,171.294159 
	C381.135376,171.196747 381.391052,171.366547 381.808807,171.705750 
z"/>
<path fill="#57A9A7" opacity="1.000000" stroke="none" 
	d="
M199.118027,274.037262 
	C198.411942,280.507080 196.962494,287.001709 197.177246,293.440826 
	C197.484940,302.667297 199.007660,311.853241 200.028595,321.466309 
	C197.621216,322.913177 195.222076,324.756897 192.767746,324.833527 
	C185.864105,325.049103 178.938492,324.501251 172.019409,324.357513 
	C171.142120,324.339264 170.252060,324.935181 169.186508,325.539673 
	C146.402557,320.162109 133.493210,304.896118 127.048393,283.310272 
	C126.222176,280.542999 125.892799,277.627350 125.708694,274.391449 
	C150.428757,274.014038 174.773392,274.025665 199.118027,274.037262 
z"/>
<path fill="#56A8AA" opacity="1.000000" stroke="none" 
	d="
M362.833191,300.000793 
	C354.489685,308.664856 346.146210,317.328918 337.060913,325.864441 
	C334.357635,325.491119 332.396454,325.035004 330.434784,325.033051 
	C298.584961,325.001678 266.735077,325.027893 234.885223,325.041107 
	C228.085724,312.880310 226.609543,299.899139 228.883041,286.327362 
	C229.073456,285.190765 229.041122,284.016876 229.596725,282.863098 
	C232.506317,283.579010 234.981033,284.159515 237.342392,285.042999 
	C239.634796,285.900635 241.810883,287.069183 244.038040,288.101227 
	C238.154007,299.029205 245.163803,309.282959 253.787888,311.403717 
	C258.781250,312.631653 266.322693,310.036865 270.235352,305.268372 
	C272.198608,302.875702 274.266724,300.569061 276.926758,298.289124 
	C280.104034,298.902893 282.639862,299.915924 285.180267,299.927460 
	C311.064148,300.045380 336.948761,300.000275 362.833191,300.000793 
z"/>
<path fill="#5DAC91" opacity="1.000000" stroke="none" 
	d="
M269.889252,226.954865 
	C272.553619,219.889969 273.713837,213.133148 267.544586,206.958588 
	C262.535980,201.945694 251.384262,200.380646 246.257935,207.163345 
	C244.671783,209.261978 242.541718,210.949509 240.104004,212.664963 
	C237.191925,212.003067 234.838531,211.076782 232.480820,211.065689 
	C209.244110,210.956360 186.006348,211.055923 162.770065,210.908829 
	C160.494003,210.894424 158.225876,209.628036 155.954071,208.942780 
	C163.414291,201.023071 170.874527,193.103394 178.894226,185.339539 
	C181.310562,185.995911 183.166473,186.928421 185.024475,186.932587 
	C216.053665,187.002304 247.083130,186.955887 278.112518,186.935349 
	C285.357452,199.512756 287.457672,213.000824 284.588074,227.626892 
	C279.247864,227.653061 274.568542,227.303970 269.889252,226.954865 
z"/>
<path fill="#5AAA9E" opacity="1.000000" stroke="none" 
	d="
M199.441254,273.831604 
	C174.773392,274.025665 150.428757,274.014038 125.626205,274.002991 
	C124.345566,261.790741 125.763557,249.988449 132.378174,238.868240 
	C157.716782,238.829208 182.260056,238.882217 206.802612,239.044220 
	C209.575821,239.062515 212.344986,239.695511 215.116028,240.043472 
	C211.582153,246.351349 207.710510,252.499634 204.629166,259.021301 
	C202.452866,263.627441 201.347794,268.739685 199.441254,273.831604 
z"/>
<path fill="#5AAA9E" opacity="1.000000" stroke="none" 
	d="
M315.086243,238.389847 
	C339.083435,238.002258 363.000977,238.002167 387.376648,238.002823 
	C388.219147,243.024109 389.453278,248.161865 388.780823,253.036621 
	C387.863586,259.685883 385.493317,266.134735 382.954651,272.847290 
	C354.736755,273.002991 327.310272,272.980865 299.883789,272.958771 
	C304.355652,263.419006 308.864105,253.896072 313.265991,244.324127 
	C314.069122,242.577713 314.437531,240.631393 315.086243,238.389847 
z"/>
<path fill="#5CAB95" opacity="1.000000" stroke="none" 
	d="
M215.421112,239.872498 
	C212.344986,239.695511 209.575821,239.062515 206.802612,239.044220 
	C182.260056,238.882217 157.716782,238.829208 132.650970,238.671906 
	C135.492493,233.493164 138.526520,228.124603 142.311798,223.351883 
	C146.278458,218.350433 150.966187,213.920868 155.646423,209.092072 
	C158.225876,209.628036 160.494003,210.894424 162.770065,210.908829 
	C186.006348,211.055923 209.244110,210.956360 232.480820,211.065689 
	C234.838531,211.076782 237.191925,212.003067 239.798462,212.806885 
	C231.941788,221.973236 223.833984,230.837387 215.421112,239.872498 
z"/>
<path fill="#58A9A4" opacity="1.000000" stroke="none" 
	d="
M299.576416,273.100433 
	C327.310272,272.980865 354.736755,273.002991 382.639221,273.032990 
	C379.976288,278.295227 377.212219,283.828003 373.580780,288.716461 
	C370.639679,292.675659 366.655334,295.859894 362.983459,299.694336 
	C336.948761,300.000275 311.064148,300.045380 285.180267,299.927460 
	C282.639862,299.915924 280.104034,298.902893 277.231537,298.152527 
	C284.354340,289.714264 291.811707,281.478180 299.576416,273.100433 
z"/>
<path fill="#5FAD8C" opacity="1.000000" stroke="none" 
	d="
M277.961182,186.622131 
	C247.083130,186.955887 216.053665,187.002304 185.024475,186.932587 
	C183.166473,186.928421 181.310562,185.995911 179.202728,185.193115 
	C188.375000,174.717606 197.610901,164.413666 211.814163,160.559448 
	C233.740616,154.609436 253.070053,158.780365 269.302704,174.947006 
	C272.619995,178.250778 274.998566,182.497070 277.961182,186.622131 
z"/>
<path fill="#5AAA9E" opacity="1.000000" stroke="none" 
	d="
M269.587952,227.092667 
	C274.568542,227.303970 279.247864,227.653061 284.380066,228.002838 
	C284.581360,237.104019 281.272034,245.449875 275.878143,252.280975 
	C267.440582,262.966797 257.789307,272.693176 248.677475,282.848694 
	C247.262390,284.425873 245.981659,286.123596 244.338409,287.933411 
	C241.810883,287.069183 239.634796,285.900635 237.342392,285.042999 
	C234.981033,284.159515 232.506317,283.579010 229.841095,282.497681 
	C231.667648,271.305420 236.626831,261.819305 243.897263,253.732574 
	C252.072357,244.639587 260.799591,236.042999 269.587952,227.092667 
z"/>
<path fill="#54A7B0" opacity="1.000000" stroke="none" 
	d="
M234.940384,325.401062 
	C266.735077,325.027893 298.584961,325.001678 330.434784,325.033051 
	C332.396454,325.035004 334.357635,325.491119 336.712830,325.892273 
	C337.057922,326.377197 337.123474,326.796692 336.944427,327.021240 
	C321.606445,346.263336 303.114075,359.563232 277.037598,355.847443 
	C258.147400,353.155731 243.917252,342.906860 234.940384,325.401062 
z"/>
<path fill="#60AE89" opacity="1.000000" stroke="none" 
	d="
M341.908081,187.609161 
	C341.422729,187.788391 340.800934,187.690887 340.087524,187.379456 
	C340.587830,187.221191 341.179749,187.276825 341.908081,187.609161 
z"/>
</svg>